<svg width="136" height="100" viewBox="0 0 136 100" fill="none" xmlns="http://www.w3.org/2000/svg">
<circle cx="70" cy="50" r="50" fill="#68B738"/>
<path d="M124.1 25.8C125.254 23.9631 126.789 22.3946 128.6 21.2C129.6 20.5 130.2 20.5 130.8 21.8C131.6 23.7 132.3 25.7 131.7 27.8C131.591 28.1562 131.57 28.5336 131.64 28.8995C131.71 29.2655 131.867 29.6089 132.1 29.9C132.7 30.7 133.2 31.5 133.7 32.2C134.38 33.0638 134.822 34.0913 134.98 35.1795C135.138 36.2678 135.007 37.3784 134.6 38.4C134.233 39.3918 134.163 40.4692 134.4 41.5C134.6 42.49 134.6 43.51 134.4 44.5C134.319 45.2414 134.019 45.9419 133.538 46.5119C133.057 47.0819 132.417 47.4956 131.7 47.7C130.421 47.9434 129.279 48.6569 128.5 49.7C128.405 49.8536 128.273 49.9803 128.115 50.0679C127.958 50.1555 127.78 50.201 127.6 50.2C126.4 50.4 123.4 47.7 123.4 46.5V45.9C123.5 42.3 123.3 42 120 40.5C119.309 40.2564 118.69 39.8439 118.2 39.3C117.6 38.5 116.8 38.6 115.9 38.9C115 39.2 114.5 39.8 114.6 40.8C114.901 43.2209 115.002 45.6626 114.9 48.1C114.907 48.3782 114.975 48.6514 115.1 48.9C118.2 53.4 119.4 58.7 120.9 63.8C122.1 67.7 124.3 69.8 128.3 70.1C128.94 70.1511 129.575 70.2514 130.2 70.4C131.022 70.532 131.785 70.9076 132.391 71.478C132.997 72.0485 133.418 72.7877 133.6 73.6C134.3 75.7 133.9 76.2 131.8 76.2H125.3C124.458 76.2426 123.633 75.9556 123 75.4C121.988 74.5459 120.838 73.8696 119.6 73.4C118.231 72.8947 117.046 71.9887 116.2 70.8C115.029 69.1635 113.688 67.6551 112.2 66.3C109.4 63.4 106.4 60.6 103.8 57.6C101.821 55.5558 100.679 52.8443 100.6 50C100.6 49.1 100.4 48.7 99.3999 49.1C99.1005 49.29 98.7545 49.3938 98.3999 49.4C95.5999 49.4 94.1999 51.1 93.1999 53.6C92.2999 55.7 91.0999 57.7 89.9999 59.8C89.3762 61.1145 89.0355 62.5454 88.9999 64C88.9999 66.4 89.5999 67.2 91.7999 68C93.1999 68.5 94.4999 69 95.1999 70.4C95.9999 72 95.7999 72.4 94.0999 72.5H87.2999C86.9079 72.5388 86.5136 72.4535 86.1727 72.2562C85.8317 72.0588 85.5614 71.7593 85.3999 71.4L83.5999 68.4C83.0693 67.6172 82.7296 66.721 82.6081 65.7832C82.4865 64.8454 82.5865 63.8922 82.8999 63C83.3327 61.2635 83.3669 59.4516 82.9999 57.7C82.7478 56.4801 82.7696 55.2195 83.0635 54.009C83.3575 52.7986 83.9164 51.6684 84.6999 50.7C85.2999 50 85.2999 49.7 84.2999 49.5C80.2108 48.6314 76.2466 47.254 72.4999 45.4C72.4734 45.4 72.448 45.3895 72.4292 45.3707C72.4105 45.352 72.3999 45.3265 72.3999 45.3C69.1999 44.1 68.5999 44.3 67.6999 47.6C66.8999 50.4 66.0999 53.2 65.4999 56.1C64.7999 59.3 65.5999 62.3 66.5999 65.3C66.9999 66.5 68.1999 66.4 69.0999 66.7C71.0999 67.3 72.7999 68.1 73.5999 70.2C74.2999 71.8 74.1999 72 72.4999 72C70.7999 72 69.0999 71.9 67.2999 72C65.781 72.0275 64.2985 71.5334 63.0999 70.6C58.2999 67.4 56.8999 62.5 56.4999 57.2C56.2999 53.9 54.4999 51.3 52.3999 48.8C51.9999 48.3 51.5999 48.1 50.9999 48.5C48.8534 49.6836 46.6124 50.687 44.2999 51.5C39.4742 53.204 35.2395 56.2585 32.0999 60.3C30.9276 61.775 30.1683 63.5351 29.8999 65.4C29.5999 67.2 30.0999 68 31.8999 68.5C33.6999 69 34.5999 70 34.7999 71.9C34.8999 72.7 34.5999 73.1 33.7999 73.1H25.6999C25.4348 73.0812 25.1782 72.9987 24.9518 72.8594C24.7255 72.7201 24.5362 72.5282 24.3999 72.3C23.1438 70.7448 22.4716 68.799 22.4999 66.8C22.4474 63.3449 22.749 59.8936 23.3999 56.5C23.5334 55.4837 23.9128 54.5153 24.5053 53.6788C25.0978 52.8424 25.8855 52.1631 26.7999 51.7C32.6999 48.9 35.7999 43.6 38.5999 38.1C39.1999 37 38.6999 36.8 37.6999 36.9C34.9013 37.2885 32.2496 38.3905 29.9999 40.1C27.0541 42.2488 24.2791 44.6226 21.6999 47.2C18.9496 49.9937 15.3026 51.7286 11.3999 52.1C4.09992 52.5 0.699919 48.4 0.999919 41.8C1.06698 39.5496 1.91557 37.3928 3.39992 35.7C3.91594 35.031 4.61965 34.531 5.42119 34.2638C6.22272 33.9966 7.0857 33.9744 7.89992 34.2C9.39992 34.6 9.79992 35.4 9.19992 36.9C8.89992 37.5 8.49992 38 8.19992 38.6C7.76852 39.213 7.43144 39.8871 7.19992 40.6C6.09992 43.6 7.59992 45.7 10.6999 46C13.9999 46.3 16.6999 44.9 19.1999 42.9C22.2118 40.4882 24.9006 37.6986 27.1999 34.6C28.9192 32.3374 31.084 30.4513 33.5607 29.0581C36.0375 27.665 38.7735 26.7943 41.5999 26.5C43.8999 26.2 45.8999 25.2 48.0999 24.6C52.2144 23.3456 56.4989 22.7384 60.7999 22.8C62.792 22.883 64.7765 22.5066 66.5999 21.7C71.4999 19.7 76.5999 19.7 81.6999 20.7C85.6999 21.5 89.6999 22.5 93.5999 23.5C95.9209 23.9325 98.3074 23.8643 100.6 23.3C104.989 22.1875 109.478 21.5175 114 21.3C116.962 21.1559 119.915 21.7395 122.6 23C124.6 23.9 124.6 23.9 124.1 25.8Z" fill="black"/>
</svg>
