<svg width="69" height="50" viewBox="0 0 69 50" fill="none" xmlns="http://www.w3.org/2000/svg">
<circle cx="35.5" cy="25" r="25" fill="#68B738"/>
<path d="M62.55 13.9C63.1272 12.9815 63.8944 12.1973 64.8 11.6C65.3 11.25 65.6 11.25 65.9 11.9C66.3 12.85 66.65 13.85 66.35 14.9C66.2954 15.0781 66.2851 15.2668 66.3199 15.4497C66.3548 15.6327 66.4338 15.8044 66.55 15.95C66.85 16.35 67.1 16.75 67.35 17.1C67.6902 17.5319 67.9109 18.0456 67.9899 18.5897C68.0689 19.1339 68.0034 19.6892 67.8 20.2C67.6164 20.6959 67.5817 21.2346 67.7 21.75C67.7999 22.245 67.7999 22.755 67.7 23.25C67.6596 23.6207 67.5095 23.9709 67.2691 24.2559C67.0286 24.5409 66.7086 24.7478 66.35 24.85C65.7104 24.9717 65.1396 25.3284 64.75 25.85C64.7028 25.9268 64.6365 25.9901 64.5577 26.0339C64.4789 26.0777 64.3901 26.1005 64.3 26.1C63.7 26.2 62.2 24.85 62.2 24.25V23.95C62.25 22.15 62.15 22 60.5 21.25C60.1546 21.1282 59.8452 20.9219 59.6 20.65C59.3 20.25 58.9 20.3 58.45 20.45C58 20.6 57.75 20.9 57.8 21.4C57.9508 22.6104 58.0009 23.8313 57.95 25.05C57.9533 25.1891 57.9875 25.3257 58.05 25.45C59.6 27.7 60.2 30.35 60.95 32.9C61.55 34.85 62.65 35.9 64.65 36.05C64.97 36.0755 65.2876 36.1257 65.6 36.2C66.0109 36.266 66.3926 36.4538 66.6956 36.739C66.9987 37.0242 67.2092 37.3938 67.3 37.8C67.65 38.85 67.45 39.1 66.4 39.1H63.15C62.7292 39.1213 62.3167 38.9778 62 38.7C61.4939 38.2729 60.9191 37.9348 60.3 37.7C59.6155 37.4473 59.0231 36.9943 58.6 36.4C58.0143 35.5817 57.3439 34.8275 56.6 34.15C55.2 32.7 53.7 31.3 52.4 29.8C51.4103 28.7779 50.8395 27.4221 50.8 26C50.8 25.55 50.7 25.35 50.2 25.55C50.0503 25.645 49.8773 25.6969 49.7 25.7C48.3 25.7 47.6 26.55 47.1 27.8C46.65 28.85 46.05 29.85 45.5 30.9C45.1881 31.5572 45.0178 32.2727 45 33C45 34.2 45.3 34.6 46.4 35C47.1 35.25 47.75 35.5 48.1 36.2C48.5 37 48.4 37.2 47.55 37.25H44.15C43.954 37.2694 43.7568 37.2267 43.5864 37.1281C43.4159 37.0294 43.2807 36.8796 43.2 36.7L42.3 35.2C42.0347 34.8086 41.8648 34.3605 41.8041 33.8916C41.7433 33.4227 41.7932 32.9461 41.95 32.5C42.1664 31.6317 42.1835 30.7258 42 29.85C41.8739 29.24 41.8848 28.6097 42.0318 28.0045C42.1788 27.3993 42.4582 26.8342 42.85 26.35C43.15 26 43.15 25.85 42.65 25.75C40.6054 25.3157 38.6233 24.627 36.75 23.7C36.7367 23.7 36.724 23.6947 36.7146 23.6853C36.7052 23.676 36.7 23.6632 36.7 23.65C35.1 23.05 34.8 23.15 34.35 24.8C33.95 26.2 33.55 27.6 33.25 29.05C32.9 30.65 33.3 32.15 33.8 33.65C34 34.25 34.6 34.2 35.05 34.35C36.05 34.65 36.9 35.05 37.3 36.1C37.65 36.9 37.6 37 36.75 37C35.9 37 35.05 36.95 34.15 37C33.3905 37.0137 32.6493 36.7667 32.05 36.3C29.65 34.7 28.95 32.25 28.75 29.6C28.65 27.95 27.75 26.65 26.7 25.4C26.5 25.15 26.3 25.05 26 25.25C24.9267 25.8418 23.8062 26.3435 22.65 26.75C20.2371 27.602 18.1198 29.1292 16.55 31.15C15.9638 31.8875 15.5842 32.7675 15.45 33.7C15.3 34.6 15.55 35 16.45 35.25C17.35 35.5 17.8 36 17.9 36.95C17.95 37.35 17.8 37.55 17.4 37.55H13.35C13.2174 37.5406 13.0891 37.4993 12.9759 37.4297C12.8628 37.36 12.7681 37.2641 12.7 37.15C12.0719 36.3724 11.7358 35.3995 11.75 34.4C11.7237 32.6724 11.8745 30.9468 12.2 29.25C12.2667 28.7418 12.4564 28.2576 12.7527 27.8394C13.0489 27.4212 13.4427 27.0815 13.9 26.85C16.85 25.45 18.4 22.8 19.8 20.05C20.1 19.5 19.85 19.4 19.35 19.45C17.9506 19.6442 16.6248 20.1952 15.5 21.05C14.0271 22.1244 12.6396 23.3113 11.35 24.6C9.9748 25.9968 8.15133 26.8643 6.19998 27.05C2.54998 27.25 0.849979 25.2 0.999979 21.9C1.03351 20.7748 1.4578 19.6964 2.19998 18.85C2.45799 18.5155 2.80985 18.2655 3.21061 18.1319C3.61138 17.9983 4.04287 17.9872 4.44998 18.1C5.19998 18.3 5.39998 18.7 5.09998 19.45C4.94998 19.75 4.74998 20 4.59998 20.3C4.38428 20.6065 4.21574 20.9435 4.09998 21.3C3.54998 22.8 4.29998 23.85 5.84998 24C7.49998 24.15 8.84998 23.45 10.1 22.45C11.6059 21.2441 12.9503 19.8493 14.1 18.3C14.9596 17.1687 16.042 16.2256 17.2804 15.529C18.5188 14.8325 19.8868 14.3971 21.3 14.25C22.45 14.1 23.45 13.6 24.55 13.3C26.6072 12.6728 28.7495 12.3692 30.9 12.4C31.896 12.4415 32.8883 12.2533 33.8 11.85C36.25 10.85 38.8 10.85 41.35 11.35C43.35 11.75 45.35 12.25 47.3 12.75C48.4605 12.9662 49.6537 12.9321 50.8 12.65C52.9943 12.0937 55.2389 11.7587 57.5 11.65C58.9812 11.5779 60.4576 11.8697 61.8 12.5C62.8 12.95 62.8 12.95 62.55 13.9Z" fill="black"/>
</svg>
